<svg width="224" height="79" xmlns="http://www.w3.org/2000/svg" xmlns:xlink="http://www.w3.org/1999/xlink" xml:space="preserve" overflow="hidden"><g transform="translate(-326 -501)"><path d="M73.597 12.3877 73.597 25.9215 71.1278 25.9215 64.6474 17.7116 64.6474 25.9215 61.6677 25.9215 61.6677 12.3877 64.1578 12.3877 70.6277 20.608 70.6277 12.3877 73.597 12.3877Z" fill="#010101" transform="matrix(1 0 0 1.01101 326 501)"/><path d="M84.099 20.6497 82.0153 15.4404 79.9315 20.6497ZM85.0471 23.0251 79.0043 23.0251 77.8582 25.9215 74.7327 25.9215 80.5254 12.3773 83.4947 12.3773 89.3187 25.9215 86.1931 25.9215Z" fill="#010101" transform="matrix(1 0 0 1.01101 326 501)"/><path d="M91.5379 14.9403 87.3808 14.9403 87.3808 12.3877 98.7163 12.3877 98.7163 14.9403 94.5488 14.9403 94.5488 25.9215 91.5379 25.9215 91.5379 14.9403Z" fill="#010101" transform="matrix(1 0 0 1.01101 326 501)"/><path d="M100.456 12.3877 103.467 12.3877 103.467 25.9215 100.456 25.9215Z" fill="#010101" transform="matrix(1 0 0 1.01101 326 501)"/><path d="M114.678 22.9209C115.295 22.5546 115.801 22.0246 116.136 21.3894 116.845 19.9763 116.845 18.3121 116.136 16.899 115.801 16.2638 115.295 15.7338 114.678 15.3674 113.388 14.623 111.8 14.623 110.51 15.3674 109.892 15.7338 109.387 16.2638 109.052 16.899 108.343 18.3121 108.343 19.9763 109.052 21.3894 109.387 22.0246 109.892 22.5546 110.51 22.9209 111.8 23.6653 113.388 23.6653 114.678 22.9209M108.947 25.2339C107.88 24.6533 106.997 23.7875 106.395 22.7334 105.775 21.6419 105.458 20.4045 105.478 19.1494 105.457 17.8942 105.774 16.6562 106.395 15.5654 106.997 14.5084 107.88 13.6392 108.947 13.0545 111.228 11.8468 113.96 11.8468 116.24 13.0545 117.302 13.667 118.177 14.5566 118.772 15.6279 120.009 17.8572 120.009 20.5666 118.772 22.7959 118.165 23.8428 117.286 24.7066 116.23 25.2964 113.949 26.5041 111.218 26.5041 108.937 25.2964" fill="#010101" transform="matrix(1 0 0 1.01101 326 501)"/><path d="M133.358 12.3877 133.358 25.9215 130.889 25.9215 124.409 17.7116 124.409 25.9215 121.429 25.9215 121.429 12.3877 123.919 12.3877 130.389 20.608 130.389 12.3877 133.358 12.3877Z" fill="#010101" transform="matrix(1 0 0 1.01101 326 501)"/><path d="M143.86 20.6497 141.776 15.4404 139.693 20.6497ZM144.819 23.0251 138.776 23.0251 137.63 25.9215 134.504 25.9215 140.297 12.3773 143.266 12.3773 149.09 25.9215 145.965 25.9215Z" fill="#010101" transform="matrix(1 0 0 1.01101 326 501)"/><path d="M150.278 12.3877 153.289 12.3877 153.289 23.3689 159.988 23.3689 159.988 25.9215 150.278 25.9215 150.278 12.3877Z" fill="#010101" transform="matrix(1 0 0 1.01101 326 501)"/><path d="M69.2837 40.5596 67.2 35.3503 65.1163 40.5596ZM70.2318 42.9351 64.1994 42.9351 63.043 45.8419 59.9174 45.8419 65.7206 32.2977 68.7628 32.2977 74.5764 45.8419 71.4508 45.8419Z" fill="#010101" transform="matrix(1 0 0 1.01101 326 501)"/><path d="M77.3373 45.6335C76.4978 45.406 75.7092 45.0206 75.014 44.4979L76.0558 42.1433C76.6537 42.6032 77.3271 42.9557 78.0458 43.1851 78.7866 43.4403 79.5647 43.5705 80.3483 43.5706 81.005 43.6196 81.6623 43.4824 82.2445 43.1747 82.6209 42.9624 82.8553 42.5651 82.8592 42.1328 82.8623 41.8247 82.7287 41.531 82.4945 41.3306 82.2219 41.1013 81.9068 40.9279 81.5673 40.8201 81.1818 40.6951 80.6713 40.5492 80.0357 40.3929 79.2087 40.2007 78.3945 39.9571 77.5978 39.6636 76.9634 39.4182 76.4035 39.0126 75.9725 38.4863 75.4936 37.8688 75.2532 37.0995 75.2952 36.3193 75.2925 35.5796 75.5062 34.8553 75.91 34.2355 76.363 33.5593 77.004 33.0305 77.754 32.7144 78.7097 32.3143 79.7397 32.1226 80.7754 32.1518 81.5947 32.1512 82.4106 32.2562 83.203 32.4644 83.9409 32.6449 84.6446 32.9439 85.2867 33.35L84.3907 35.6525C83.3054 34.9856 82.0595 34.6255 80.7859 34.6106 80.1366 34.5608 79.4873 34.7059 78.9209 35.0273 78.5384 35.2725 78.3098 35.6982 78.3167 36.1526 78.2908 36.6167 78.5757 37.0418 79.0147 37.1944 79.6832 37.4912 80.3818 37.7148 81.0984 37.8612 81.9254 38.0578 82.7396 38.3048 83.5364 38.6009 84.1665 38.8442 84.7253 39.2419 85.1617 39.7574 85.6391 40.3676 85.8796 41.1299 85.8389 41.9036 85.8391 42.6444 85.6218 43.369 85.2138 43.9874 84.7504 44.6623 84.1031 45.1902 83.3488 45.5085 82.3893 45.9078 81.356 46.0995 80.317 46.0711 79.3076 46.0741 78.3033 45.9266 77.3373 45.6335" fill="#010101" transform="matrix(1 0 0 1.01101 326 501)"/><path d="M89.0478 45.6335C88.208 45.4067 87.4193 45.0213 86.7245 44.4979L87.7663 42.1433C88.3619 42.6011 89.0314 42.9535 89.7459 43.1851 90.4905 43.4395 91.2719 43.5698 92.0588 43.5706 92.7121 43.6199 93.3661 43.4826 93.9446 43.1747 94.3242 42.9656 94.5598 42.5662 94.5593 42.1328 94.5624 41.8247 94.4288 41.531 94.1946 41.3306 93.9234 41.0992 93.6079 40.9255 93.2673 40.8201 92.8923 40.6951 92.3818 40.5492 91.7358 40.3929 90.9122 40.2008 90.1014 39.9573 89.3083 39.6636 88.6739 39.4182 88.114 39.0126 87.683 38.4863 87.2012 37.8699 86.9572 37.1008 86.9953 36.3193 86.9974 35.5803 87.2107 34.8573 87.61 34.2355 88.0694 33.561 88.7132 33.0329 89.4646 32.7144 90.4203 32.3143 91.4502 32.1226 92.4859 32.1518 93.3052 32.1512 94.1212 32.2562 94.9135 32.4644 95.6507 32.647 96.3541 32.9459 96.9972 33.35L96.07 35.7358C94.984 35.0704 93.7386 34.7104 92.4651 34.694 91.8158 34.6442 91.1665 34.7893 90.6002 35.1107 90.2176 35.3558 89.989 35.7816 89.9959 36.2359 89.9687 36.6972 90.2487 37.1215 90.6835 37.2778 91.3529 37.5721 92.0513 37.7956 92.7673 37.9446 93.5913 38.1395 94.402 38.3866 95.1948 38.6843 95.8416 38.8785 96.4268 39.2375 96.893 39.7261 97.3774 40.3326 97.6188 41.0976 97.5702 41.8724 97.5693 42.6115 97.3559 43.3348 96.9555 43.9561 96.4901 44.6333 95.8389 45.1616 95.0802 45.4772 94.1245 45.8773 93.0944 46.069 92.0588 46.0398 91.0493 46.0428 90.0451 45.8953 89.0791 45.6022" fill="#010101" transform="matrix(1 0 0 1.01101 326 501)"/><path d="M107.728 42.8517C108.344 42.4784 108.848 41.9457 109.187 41.3098 109.895 39.9003 109.895 38.2392 109.187 36.8298 108.088 34.8602 105.6 34.1549 103.63 35.2543 103.611 35.2653 103.591 35.2765 103.571 35.2878 102.947 35.6536 102.437 36.1881 102.102 36.8298 101.394 38.2392 101.394 39.9003 102.102 41.3098 102.435 41.9501 102.94 42.4844 103.561 42.8517 104.851 43.5961 106.439 43.5961 107.728 42.8517M101.998 45.1542C100.935 44.5731 100.055 43.7072 99.456 42.6538 98.219 40.4245 98.219 37.715 99.456 35.4858 100.055 34.4323 100.935 33.5665 101.998 32.9853 104.276 31.7628 107.014 31.7628 109.291 32.9853 110.35 33.5722 111.229 34.4366 111.833 35.4858 113.07 37.715 113.07 40.4245 111.833 42.6538 111.229 43.7029 110.35 44.5674 109.291 45.1542 107.014 46.3768 104.276 46.3768 101.998 45.1542" fill="#010101" transform="matrix(1 0 0 1.01101 326 501)"/><path d="M117.428 45.1646C116.376 44.5957 115.501 43.7488 114.896 42.7163 113.673 40.4686 113.673 37.7543 114.896 35.5066 115.494 34.4587 116.371 33.5969 117.428 33.0166 118.529 32.4031 119.772 32.0906 121.033 32.1101 122.087 32.0946 123.132 32.3079 124.096 32.7353 124.992 33.1322 125.778 33.7398 126.388 34.5064L124.461 36.3713C123.679 35.3579 122.469 34.7682 121.189 34.7773 120.434 34.7624 119.688 34.9533 119.033 35.3295 118.405 35.6956 117.893 36.2297 117.553 36.8714 116.845 38.2809 116.845 39.942 117.553 41.3514 117.893 41.9932 118.405 42.5273 119.033 42.8934 119.688 43.2696 120.434 43.4605 121.189 43.4456 122.471 43.4506 123.68 42.8571 124.461 41.8411L126.388 43.6956C125.781 44.4739 124.989 45.0895 124.086 45.4876 123.122 45.915 122.077 46.1283 121.023 46.1127 119.765 46.132 118.525 45.8194 117.428 45.2063" fill="#010101" transform="matrix(1 0 0 1.01101 326 501)"/><path d="M128.097 32.3081 131.108 32.3081 131.108 45.8419 128.097 45.8419Z" fill="#010101" transform="matrix(1 0 0 1.01101 326 501)"/><path d="M141.797 40.5596 139.714 35.3503 137.63 40.5596ZM142.745 42.9351 136.703 42.9351 135.546 45.8419 132.42 45.8419 138.224 32.2977 141.193 32.2977 147.007 45.8419 143.881 45.8419Z" fill="#010101" transform="matrix(1 0 0 1.01101 326 501)"/><path d="M149.236 34.8606 145.079 34.8606 145.079 32.3081 156.415 32.3081 156.415 34.8606 152.247 34.8606 152.247 45.8314 149.236 45.8314 149.236 34.8606Z" fill="#010101" transform="matrix(1 0 0 1.01101 326 501)"/><path d="M158.154 32.3081 161.165 32.3081 161.165 45.8419 158.154 45.8419Z" fill="#010101" transform="matrix(1 0 0 1.01101 326 501)"/><path d="M172.376 42.8517C172.992 42.4784 173.496 41.9457 173.834 41.3098 174.529 39.8973 174.529 38.2422 173.834 36.8298 173.496 36.1938 172.992 35.6611 172.376 35.2878 171.086 34.5434 169.498 34.5434 168.208 35.2878 167.593 35.6611 167.088 36.1938 166.75 36.8298 166.041 38.2392 166.041 39.9003 166.75 41.3098 167.088 41.9457 167.593 42.4784 168.208 42.8517 169.498 43.5961 171.086 43.5961 172.376 42.8517M166.635 45.1542C165.574 44.5704 164.694 43.7052 164.093 42.6538 162.87 40.421 162.87 37.7186 164.093 35.4858 164.694 34.4343 165.574 33.5692 166.635 32.9853 167.754 32.3685 169.015 32.0526 170.292 32.0685 171.563 32.0519 172.817 32.368 173.928 32.9853 174.99 33.5719 175.872 34.4362 176.481 35.4858 177.717 37.715 177.717 40.4245 176.481 42.6538 175.872 43.7033 174.99 44.5677 173.928 45.1542 172.819 45.7757 171.564 46.092 170.292 46.0711 169.014 46.0913 167.753 45.7751 166.635 45.1542" fill="#010101" transform="matrix(1 0 0 1.01101 326 501)"/><path d="M191.056 32.3081 191.056 45.8314 188.587 45.8314 182.096 37.6216 182.096 45.8314 179.127 45.8314 179.127 32.3081 181.617 32.3081 188.087 40.518 188.087 32.3081 191.056 32.3081Z" fill="#010101" transform="matrix(1 0 0 1.01101 326 501)"/><path d="M207.236 42.8517C207.855 42.4818 208.36 41.9482 208.695 41.3098 209.404 39.9003 209.404 38.2392 208.695 36.8298 208.36 36.1913 207.855 35.6578 207.236 35.2878 205.947 34.5434 204.359 34.5434 203.069 35.2878 202.45 35.6578 201.946 36.1913 201.61 36.8298 200.903 38.2392 200.903 39.9003 201.61 41.3098 201.946 41.9482 202.45 42.4818 203.069 42.8517 204.359 43.5961 205.947 43.5961 207.236 42.8517M201.506 45.1542C200.445 44.5704 199.565 43.7052 198.964 42.6538 197.727 40.4245 197.727 37.715 198.964 35.4858 199.565 34.4343 200.445 33.5692 201.506 32.9853 203.784 31.7628 206.522 31.7628 208.799 32.9853 209.858 33.5722 210.737 34.4366 211.341 35.4858 212.597 37.7102 212.597 40.4293 211.341 42.6538 210.737 43.7029 209.858 44.5674 208.799 45.1542 206.522 46.3768 203.784 46.3768 201.506 45.1542" fill="#010101" transform="matrix(1 0 0 1.01101 326 501)"/><path d="M217.186 34.819 217.186 38.3926 223.198 38.3926 223.198 40.9034 217.186 40.9034 217.186 45.8314 214.175 45.8314 214.175 32.3081 224 32.3081 224 34.819 217.186 34.819Z" fill="#010101" transform="matrix(1 0 0 1.01101 326 501)"/><path d="M69.2004 55.3749C68.6003 54.9312 67.8611 54.7167 67.1166 54.7706L64.6787 54.7706 64.6787 59.4902 67.1375 59.4902C67.8852 59.5448 68.6269 59.3223 69.2212 58.8651 70.1513 57.8875 70.1513 56.3525 69.2212 55.3749M69.9818 65.7935 67.4709 62.022 64.6787 62.022 64.6787 65.7935 61.6677 65.7935 61.6677 52.2493 67.3042 52.2493C68.337 52.2242 69.3622 52.4307 70.3047 52.8536 71.111 53.2138 71.7926 53.8047 72.2634 54.5518 73.194 56.1636 73.194 58.1494 72.2634 59.7611 71.7829 60.5002 71.0941 61.0803 70.2839 61.4281L73.2011 65.7831Z" fill="#0E6CB6" transform="matrix(1 0 0 1.01101 326 501)"/><path d="M85.1408 63.2409 85.1408 65.7518 75.066 65.7518 75.066 52.218 84.8908 52.218 84.8908 54.7289 78.0562 54.7289 78.0562 57.667 84.099 57.667 84.099 60.1049 78.0562 60.1049 78.0562 63.2409 85.1408 63.2409Z" fill="#0E6CB6" transform="matrix(1 0 0 1.01101 326 501)"/><path d="M95.3198 60.4279 93.2361 55.2186 91.1524 60.4279ZM96.2679 62.8033 90.2355 62.8033 89.0791 65.7518 85.9535 65.7518 91.7567 52.2076 94.8093 52.2076 100.623 65.7518 97.4973 65.7518Z" fill="#0E6CB6" transform="matrix(1 0 0 1.01101 326 501)"/><path d="M101.748 52.218 104.759 52.218 104.759 63.1993 111.281 63.1993 111.281 65.7518 101.748 65.7518 101.748 52.218Z" fill="#0E6CB6" transform="matrix(1 0 0 1.01101 326 501)"/><path d="M113.802 54.7706 109.635 54.7706 109.635 52.218 120.97 52.218 120.97 54.7706 116.813 54.7706 116.813 65.7518 113.802 65.7518 113.802 54.7706Z" fill="#0E6CB6" transform="matrix(1 0 0 1.01101 326 501)"/><path d="M130.483 62.7617C131.104 62.3985 131.609 61.8677 131.941 61.2301 132.65 59.8171 132.65 58.1528 131.941 56.7397 131.609 56.1022 131.104 55.5714 130.483 55.2082 129.193 54.4638 127.605 54.4638 126.315 55.2082 125.694 55.5714 125.189 56.1022 124.857 56.7397 124.148 58.1528 124.148 59.8171 124.857 61.2301 125.189 61.8677 125.694 62.3985 126.315 62.7617 127.605 63.5061 129.193 63.5061 130.483 62.7617M124.752 65.0746C123.689 64.4897 122.808 63.6204 122.21 62.5637 120.987 60.3309 120.987 57.6285 122.21 55.3957 122.811 54.3443 123.691 53.4791 124.752 52.8953 125.872 52.2816 127.132 51.9694 128.409 51.9888 129.679 51.9691 130.933 52.2816 132.045 52.8953 133.107 53.4791 133.986 54.3443 134.588 55.3957 135.843 57.6202 135.843 60.3392 134.588 62.5637 133.99 63.6204 133.109 64.4897 132.045 65.0746 130.933 65.6883 129.679 66.0007 128.409 65.981 127.132 66.0005 125.872 65.6882 124.752 65.0746" fill="#0E6CB6" transform="matrix(1 0 0 1.01101 326 501)"/><path d="M144.944 55.3749C144.346 54.9259 143.605 54.7111 142.86 54.7706L140.412 54.7706 140.412 59.4902 142.86 59.4902C143.608 59.5488 144.351 59.3259 144.944 58.8651 145.89 57.8941 145.89 56.3459 144.944 55.3749M145.704 65.7935 143.193 62.022 140.432 62.022 140.432 65.7935 137.421 65.7935 137.421 52.2493 143.047 52.2493C144.08 52.222 145.106 52.4286 146.048 52.8536 146.856 53.2105 147.539 53.8022 148.007 54.5518 148.479 55.3369 148.717 56.2405 148.694 57.1565 148.721 58.0742 148.479 58.9797 147.996 59.7611 147.518 60.5024 146.828 61.083 146.017 61.4281L148.934 65.7831Z" fill="#0E6CB6" transform="matrix(1 0 0 1.01101 326 501)"/><path d="M152.174 65.5434C151.341 65.3135 150.556 64.9321 149.861 64.4182L150.903 62.0532C151.506 62.5048 152.178 62.8565 152.893 63.0951 153.636 63.3437 154.412 63.4737 155.196 63.4806 155.852 63.5246 156.508 63.3876 157.092 63.0847 157.47 62.8739 157.704 62.4756 157.706 62.0428 157.71 61.7346 157.576 61.4409 157.342 61.2406 157.07 61.0078 156.755 60.8308 156.415 60.7196 156.039 60.5946 155.529 60.4487 154.883 60.3029 154.056 60.1063 153.242 59.8593 152.445 59.5632 151.799 59.3074 151.232 58.8872 150.799 58.3442 150.324 57.725 150.083 56.9569 150.122 56.1771 150.126 55.4384 150.338 54.7159 150.736 54.0934 151.191 53.4169 151.837 52.891 152.591 52.5827 153.543 52.182 154.569 51.9901 155.602 52.0201 156.424 52.0203 157.243 52.1218 158.04 52.3222 158.777 52.5082 159.481 52.8108 160.124 53.2182L159.196 55.5937C158.111 54.9282 156.865 54.5683 155.591 54.5518 154.938 54.5063 154.285 54.6549 153.716 54.979 153.338 55.2236 153.111 55.6436 153.112 56.0938 153.109 56.5515 153.386 56.9646 153.81 57.1356 154.497 57.4288 155.213 57.6522 155.946 57.8024 156.77 57.9945 157.58 58.238 158.373 58.5317 159.002 58.777 159.561 59.1742 159.999 59.6882 160.483 60.2947 160.725 61.0597 160.676 61.8344 160.676 62.5737 160.462 63.2974 160.061 63.9181 159.599 64.5991 158.947 65.1284 158.186 65.4393 157.23 65.8393 156.2 66.031 155.164 66.0019 154.152 66.0041 153.144 65.8566 152.174 65.5643" fill="#0E6CB6" transform="matrix(1 0 0 1.01101 326 501)"/><path d="M165.895 55.4166C166.108 55.4266 166.317 55.364 166.489 55.2394 166.631 55.1131 166.708 54.9291 166.698 54.7393 166.706 54.5468 166.63 54.3602 166.489 54.2288 166.317 54.1042 166.108 54.0417 165.895 54.0517L165.26 54.0517 165.26 55.4166ZM167.604 55.552C167.462 55.7858 167.256 55.9739 167.01 56.0938L167.927 57.5524 166.802 57.5524 166.01 56.2605 165.27 56.2605 165.27 57.5211 164.145 57.5211 164.145 53.187 165.968 53.187C166.452 53.1566 166.931 53.3049 167.312 53.6037 167.64 53.8883 167.82 54.306 167.802 54.7393 167.811 55.0232 167.743 55.3041 167.604 55.552M167.364 58.1775C167.833 57.8899 168.218 57.4838 168.479 57.0002 168.752 56.4912 168.892 55.9212 168.886 55.3436 168.892 54.7706 168.756 54.205 168.49 53.6975 168.239 53.2183 167.86 52.8181 167.396 52.541 165.944 51.6718 164.063 52.1438 163.194 53.5951 163.17 53.6356 163.146 53.6768 163.124 53.7183 162.852 54.224 162.713 54.7903 162.718 55.3645 162.71 55.9389 162.85 56.5057 163.124 57.0106 163.38 57.4916 163.757 57.8975 164.218 58.1879 164.693 58.4733 165.237 58.6211 165.791 58.6151 166.347 58.6208 166.891 58.4691 167.364 58.1775M167.75 51.9263C168.329 52.2682 168.805 52.7616 169.125 53.3537 169.799 54.6131 169.799 56.1263 169.125 57.3857 168.796 57.9745 168.319 58.4667 167.74 58.813 166.545 59.5208 165.059 59.5208 163.864 58.813 163.301 58.4586 162.842 57.9629 162.53 57.3753 162.197 56.7577 162.025 56.0662 162.03 55.3645 162.023 54.6658 162.195 53.9769 162.53 53.3641 162.85 52.7634 163.33 52.2623 163.916 51.9159 164.506 51.5681 165.18 51.388 165.864 51.395 166.545 51.3847 167.215 51.5613 167.802 51.9055" fill="#0E6CB6" transform="matrix(1 0 0 1.01101 326 501)"/><path d="M48.061 12.346 0 12.346 0 65.8456 48.061 65.8456ZM20.5142 58.4484 6.85544 58.4484 6.85544 19.389 20.5455 19.389ZM31.0995 19.4307C36.4788 19.3359 40.9164 23.6196 41.0112 28.9988 41.014 29.1607 41.0128 29.3227 41.0076 29.4846 41.0076 37.2569 34.2772 38.9864 31.0683 38.9447L25.734 38.9447 25.734 19.4411ZM25.734 58.5421 25.734 39.1948 44.4874 58.5421Z" fill="#0E6CB6" transform="matrix(1 0 0 1.01101 326 501)"/></g></svg>