<svg width="166" height="58" xmlns="http://www.w3.org/2000/svg" xmlns:xlink="http://www.w3.org/1999/xlink" xml:space="preserve" overflow="hidden"><defs><clipPath id="clip0"><rect x="500" y="630" width="166" height="58"/></clipPath></defs><g clip-path="url(#clip0)" transform="translate(-500 -630)"><path d="M51.9699 61.1256C51.2199 61.7683 50.6844 61.5538 50.6844 61.5538 49.9344 61.2856 50.4162 59.9465 50.4162 59.9465 50.8989 58.3393 53.0417 51.5347 54.4344 47.1948 54.4344 47.1948 55.078 45.2666 55.828 42.7484 56.6316 40.0667 56.1489 38.1939 56.1489 38.1939 55.5062 36.1048 53.6844 34.9257 51.7562 34.5511 50.4699 34.283 49.0745 34.283 48.059 34.3366 44.8444 34.5511 42.219 36.4793 42.219 36.4793 40.5581 37.6584 40.2371 38.0866 40.2371 38.0866L47.1455 17.7812 33.2717 17.7812 33.2717 19.2276 35.2008 19.2276 34.2899 22.1212C30.2717 17.7276 20.3063 17.8885 20.3063 17.8885L0.214533 17.8885 0.214533 19.2812 6.05538 19.2812 6.05538 63.5901 0 63.5901 0 64.9829 35.3608 64.9829 35.3608 63.5901 31.5035 63.5901 39.1117 41.2484C39.1117 41.2484 43.0762 36.8011 46.1299 36.212 46.1299 36.212 47.4162 35.7795 46.6662 38.0866 45.8089 40.7683 42.3799 51.7493 40.8262 56.6784 40.8262 56.6784 40.0226 59.1965 40.1299 60.9111 40.1299 60.9111 40.1299 64.6074 44.469 65.251 49.3453 65.9474 51.8098 63.8038 57.3816 57.5356L57.4353 55.1247C54.7579 58.5538 52.7735 60.4284 51.9699 61.1256ZM15.0018 19.2812C20.199 18.3167 23.1454 20.2994 23.1454 20.2994 23.1454 20.2994 27.8599 22.6566 27.1099 31.0684 27.1099 31.0684 27.1099 35.5667 25.1281 38.2484 25.1281 38.2484 23.3599 40.552 19.609 41.0883 18.3772 41.2492 15.0018 41.142 15.0018 41.142L15.0018 19.2812ZM14.9481 42.6948C22.8772 42.6948 26.8963 41.623 28.1835 41.1947L21.0035 63.5901 14.9481 63.5901ZM29.8963 63.5901 22.5563 63.5901 29.8963 40.4932C34.3946 38.6766 36.0044 35.4041 36.0044 35.4041 39.1653 30.0459 36.4863 25.0632 35.3608 23.4023L36.7544 19.0623 45.0589 19.0623ZM47.4162 63.8574C46.9837 63.9647 43.9871 64.1792 42.5944 62.8938 41.1472 61.5538 41.6835 59.1965 42.1117 57.6965 42.5944 56.0356 43.6688 52.7657 43.6688 52.7657 45.2259 47.5685 47.5269 40.6031 48.0088 38.7821 48.7008 36.424 48.3842 35.7812 48.3842 35.7812 48.3842 35.7812 49.7233 35.4603 51.9197 36.0494 54.0633 36.6385 55.3488 38.2458 54.2778 42.3176L49.6662 57.2138 49.1351 58.8747C48.8669 59.732 48.5987 60.9647 48.8669 61.6074 49.2423 62.572 49.8315 62.7865 49.8315 62.7865 49.1351 63.3756 47.8444 63.7545 47.4162 63.8574Z" fill="#1E344B" transform="matrix(1 0 0 1.01078 500.062 612.027)"/><path d="M163.09 63.5901 150.07 17.8885 145.517 17.8885 132.444 63.5901 119.8 17.8885 117.71 17.8885 109.405 47.1411 101.583 17.8885 99.547 17.8885 88.7779 54.9128C88.7779 54.9128 88.5634 46.9837 86.2598 44.4119 83.9561 41.8937 81.3289 40.8219 75.3834 39.9136 75.3834 39.9136 74.2052 39.9672 74.5262 39.3245 74.5262 39.3245 79.6161 39.1636 83.2632 36.4845 83.2632 36.4845 88.6741 32.52 86.3705 25.0191 84.9241 20.4118 77.8514 18.59 77.8514 18.59 74.5798 17.6739 67.5607 17.9421 67.5607 17.9421L52.7207 17.9421 52.7207 19.3348 57.328 19.3348 57.3816 55.982 57.328 57.1602 57.328 63.6481 52.6135 63.6481 52.6135 65.0408 72.008 65.0408 72.008 63.6481 66.4362 63.6481 66.4362 40.2302 70.7225 40.2302C70.7225 40.2302 77.4198 39.5875 78.277 47.2484 79.1343 54.9093 77.8445 64.1256 85.9916 65.4145 94.1387 66.7035 96.2252 62.6827 96.2252 62.6827L95.797 61.9863C95.797 61.9863 93.2788 64.6109 91.4034 64.0218 89.8463 63.54 89.1542 61.9863 88.9925 58.9318L96.7607 33.3755 105.709 65.469 114.817 33.4776 122.907 63.5901 118.945 63.5901 118.945 64.9829 136.732 64.9829 136.732 63.5901 133.947 63.5901 136.304 55.3929 151.467 55.3929 153.556 63.5901 149.75 63.5901 149.75 64.9829 165.876 64.9829 165.876 63.5901ZM66.4898 39.2657 66.4898 19.1177C66.4898 19.1177 69.1152 18.8504 71.4206 19.225 71.4206 19.225 76.2424 19.2786 77.1533 27.7977 77.207 28.494 77.2606 29.244 77.2606 30.0468 77.3142 34.2795 76.0279 38.2977 72.2242 39.0477 72.1689 39.0511 69.0616 39.7475 66.4898 39.2657ZM137.424 51.3202 143.859 28.8712 150.395 51.3202Z" fill="#1E344B" transform="matrix(1 0 0 1.01078 500.062 612.027)"/><path d="M3.80624 75.0002 2.4135 72.6966 0.750002 72.6966 0.750002 75.0002 0.268167 75.0002 0.268167 69.1083 1.92907 69.1083C3.26817 69.1083 4.12544 69.8047 4.12544 70.9301 4.12544 71.7874 3.64361 72.3765 2.83997 72.6447L4.28634 75.0556 3.80624 75.0556ZM1.98962 72.2675C3.06056 72.2675 3.65053 71.6784 3.65053 70.8748 3.65053 70.0175 3.00693 69.5357 1.98962 69.5357L0.750002 69.5357 0.750002 72.2675Z" fill="#1E344B" transform="matrix(1 0 0 1.01078 500.062 612.027)"/><path d="M10.7691 74.5201 10.7691 75.0002 6.85815 75.0002 6.85815 69.1083 10.7154 69.1083 10.7154 69.5902 7.34172 69.5902 7.34172 71.6801 10.0744 71.6801 10.0744 72.1127 7.33999 72.1127 7.33999 74.5772 10.7691 74.5772Z" fill="#1E344B" transform="matrix(1 0 0 1.01078 500.062 612.027)"/><path d="M16.4481 70.662C16.3409 69.8583 15.6445 69.3765 14.8409 69.3765 13.9836 69.3765 13.3409 69.809 13.3409 70.5011 13.3409 71.1931 14.1981 71.4656 15.0018 71.6801 15.8054 71.8947 16.9845 72.2156 16.9845 73.4483 16.9845 74.4128 16.1272 75.1628 14.8409 75.1628 13.5545 75.1628 12.8054 74.4128 12.6445 73.4483L13.1263 73.341C13.18 74.091 13.8184 74.7338 14.8409 74.7338 15.8054 74.7338 16.4481 74.1983 16.4481 73.5019 16.4481 72.5374 15.3236 72.3229 14.5199 72.1083 13.8227 71.8947 12.8028 71.6265 12.8028 70.6083 12.8028 69.6974 13.6601 69.0512 14.8383 69.0512 15.9101 69.0512 16.7137 69.694 16.9282 70.6083Z" fill="#1E344B" transform="matrix(1 0 0 1.01078 500.062 612.027)"/><path d="M23.3565 74.5201 23.3565 75.0002 19.449 75.0002 19.449 69.1083 23.3063 69.1083 23.3063 69.5902 19.9326 69.5902 19.9326 71.6801 22.6644 71.6801 22.6644 72.1127 19.9309 72.1127 19.9309 74.5772 23.3565 74.5772Z" fill="#1E344B" transform="matrix(1 0 0 1.01078 500.062 612.027)"/><path d="M29.789 73.2874 26.6817 73.2874 25.9317 75.0002 25.3954 75.0002 28.0208 69.053 28.4534 69.053 31.0753 75.0002 30.5364 75.0002ZM29.5745 72.8549 28.5035 70.341C28.3963 70.0192 28.2354 69.6438 28.2354 69.6438L28.2354 69.6438C28.2354 69.6438 28.0745 70.0192 27.9672 70.341L26.8963 72.8592Z" fill="#1E344B" transform="matrix(1 0 0 1.01078 500.062 612.027)"/><path d="M36.8081 75.0002 35.4145 72.6966 33.8574 72.6966 33.8574 75.0002 33.3755 75.0002 33.3755 69.1083 35.0364 69.1083C36.3755 69.1083 37.2328 69.8047 37.2328 70.9301 37.2328 71.7874 36.751 72.3765 35.9473 72.6447L37.3937 75.0556 36.8081 75.0556ZM35.0399 72.2675C36.1117 72.2675 36.7008 71.6784 36.7008 70.8748 36.7008 70.0175 36.0581 69.5357 35.0399 69.5357L33.8072 69.5357 33.8072 72.2675Z" fill="#1E344B" transform="matrix(1 0 0 1.01078 500.062 612.027)"/><path d="M44.5226 70.662C44.0944 69.912 43.2371 69.4838 42.3262 69.4838 40.8799 69.4838 39.7544 70.5547 39.7544 72.1083 39.7544 73.662 40.879 74.6801 42.3262 74.6801 43.3444 74.6801 44.2017 74.1447 44.6299 73.2874L45.1126 73.4483C44.6299 74.5201 43.5555 75.1628 42.3262 75.1628 40.6117 75.1628 39.2726 73.8765 39.2726 72.1083 39.2534 70.4411 40.5894 69.0739 42.2566 69.0547 42.2799 69.0544 42.3031 69.0544 42.3262 69.0547 43.5053 69.0547 44.469 69.6438 45.0079 70.6118Z" fill="#1E344B" transform="matrix(1 0 0 1.01078 500.062 612.027)"/><path d="M51.8635 69.1083 51.8635 75.0556 51.3842 75.0556 51.3842 72.2156 47.8444 72.2156 47.8444 75.0556 47.3626 75.0556 47.3626 69.1083 47.8444 69.1083 47.8444 71.6801 51.3842 71.6801 51.3842 69.1083Z" fill="#1E344B" transform="matrix(1 0 0 1.01078 500.062 612.027)"/><path d="M73.5616 69.1083C74.9016 69.1083 75.7589 69.8047 75.7589 70.9838 75.7589 72.1083 74.9552 72.8592 73.5616 72.8592L72.3834 72.8592 72.3834 75.0556 71.9007 75.0556 71.9007 69.1083ZM73.5616 72.3229C74.6334 72.3229 75.2225 71.7874 75.2225 70.9301 75.2225 70.0192 74.5798 69.5374 73.5616 69.5374L72.3834 69.5374 72.3834 72.3229Z" fill="#1E344B" transform="matrix(1 0 0 1.01078 500.062 612.027)"/><path d="M81.5988 75.0002 80.2052 72.6966 78.6481 72.6966 78.6481 75.0002 78.1663 75.0002 78.1663 69.1083 79.8272 69.1083C81.1663 69.1083 82.0236 69.8047 82.0236 70.9301 82.0236 71.7874 81.5417 72.3765 80.7381 72.6447L82.1845 75.0556 81.5954 75.0556ZM79.8307 72.2675C80.9025 72.2675 81.4916 71.6784 81.4916 70.8748 81.4916 70.0175 80.8488 69.5357 79.8307 69.5357L78.598 69.5357 78.598 72.2675Z" fill="#1E344B" transform="matrix(1 0 0 1.01078 500.062 612.027)"/><path d="M87.117 68.9448C88.8316 68.9448 90.1707 70.2312 90.1707 71.9993 90.1897 73.6665 88.854 75.0338 87.1862 75.053 87.1637 75.0532 87.1404 75.0532 87.117 75.053 85.4025 75.053 84.0634 73.7666 84.0634 71.9993 84.0624 70.3133 85.4284 68.9458 87.1144 68.9448 87.1153 68.9448 87.1162 68.9448 87.117 68.9448ZM87.117 74.6239C88.5634 74.6239 89.6888 73.553 89.6888 71.9993 89.6888 70.4457 88.5643 69.3739 87.117 69.3739 85.6698 69.3739 84.5452 70.4448 84.5452 71.9993 84.5452 73.6092 85.6706 74.6265 87.117 74.6265Z" fill="#1E344B" transform="matrix(1 0 0 1.01078 500.062 612.027)"/><path d="M97.8324 74.0374C97.5651 74.3592 96.8143 75.162 95.5288 75.162 93.8143 75.162 92.4752 73.8756 92.4752 72.1075 92.4561 70.4402 93.7918 69.073 95.4596 69.0538 95.4821 69.0536 95.5055 69.0536 95.5288 69.0538 96.7607 69.1075 97.7252 69.6966 98.2105 70.6109L97.7278 70.7182C97.2952 69.9682 96.4423 69.54 95.5314 69.54 94.085 69.54 92.9596 70.6109 92.9596 72.1646 92.9596 73.7182 94.0842 74.79 95.5314 74.79 96.7632 74.79 97.6205 74.04 97.835 73.5045L97.835 72.4301 95.9596 72.4301 95.9596 72.0019 98.2641 72.0019 98.2641 75.0002 97.8316 75.0002 97.8316 74.0374Z" fill="#1E344B" transform="matrix(1 0 0 1.01078 500.062 612.027)"/><path d="M104.369 75.0002 102.976 72.6966 101.419 72.6966 101.419 75.0002 100.936 75.0002 100.936 69.1083 102.597 69.1083C103.937 69.1083 104.794 69.8047 104.794 70.9301 104.794 71.7874 104.312 72.3765 103.508 72.6447L104.955 75.0556 104.365 75.0556ZM102.601 72.2675C103.672 72.2675 104.262 71.6784 104.262 70.8748 104.262 70.0175 103.619 69.5357 102.601 69.5357L101.369 69.5357 101.369 72.2675Z" fill="#1E344B" transform="matrix(1 0 0 1.01078 500.062 612.027)"/><path d="M111.388 74.5201 111.388 75.0002 107.477 75.0002 107.477 69.1083 111.332 69.1083 111.332 69.5902 107.959 69.5902 107.959 71.6801 110.691 71.6801 110.691 72.1127 107.959 72.1127 107.959 74.5772 111.388 74.5772Z" fill="#1E344B" transform="matrix(1 0 0 1.01078 500.062 612.027)"/><path d="M117.013 70.662C116.906 69.8583 116.21 69.3765 115.406 69.3765 114.549 69.3765 113.906 69.809 113.906 70.5011 113.906 71.1931 114.763 71.4656 115.567 71.6801 116.371 71.8947 117.549 72.2156 117.549 73.4483 117.549 74.4128 116.691 75.1628 115.406 75.1628 114.121 75.1628 113.37 74.4128 113.21 73.4483L113.691 73.341C113.745 74.091 114.384 74.7338 115.406 74.7338 116.371 74.7338 117.013 74.1983 117.013 73.5019 117.013 72.5374 115.889 72.3229 115.084 72.1083 114.392 71.8947 113.37 71.6265 113.37 70.6083 113.37 69.6974 114.227 69.0512 115.406 69.0512 116.478 69.0512 117.281 69.694 117.495 70.6083Z" fill="#1E344B" transform="matrix(1 0 0 1.01078 500.062 612.027)"/><path d="M123.335 70.662C123.229 69.8583 122.531 69.3765 121.728 69.3765 120.871 69.3765 120.228 69.809 120.228 70.5011 120.228 71.1931 121.085 71.4656 121.889 71.6801 122.692 71.8947 123.871 72.2156 123.871 73.4483 123.871 74.4128 123.014 75.1628 121.728 75.1628 120.442 75.1628 119.692 74.4128 119.531 73.4483L120.013 73.341C120.067 74.091 120.711 74.7338 121.728 74.7338 122.692 74.7338 123.335 74.1983 123.335 73.5019 123.335 72.5374 122.211 72.3229 121.407 72.1083 120.715 71.8947 119.692 71.6265 119.692 70.6083 119.692 69.6974 120.55 69.0512 121.728 69.0512 122.8 69.0512 123.603 69.694 123.818 70.6083Z" fill="#1E344B" transform="matrix(1 0 0 1.01078 500.062 612.027)"/><path d="M144.499 69.1083 144.499 75.0556 144.017 75.0556 144.017 72.2156 140.485 72.2156 140.485 75.0556 140.002 75.0556 140.002 69.1083 140.485 69.1083 140.485 71.6801 144.021 71.6801 144.021 69.1083Z" fill="#1E344B" transform="matrix(1 0 0 1.01078 500.062 612.027)"/><path d="M150.07 68.9448C151.785 68.9448 153.125 70.2312 153.125 71.9993 153.144 73.6665 151.808 75.0338 150.141 75.053 150.117 75.0532 150.094 75.0532 150.07 75.053 148.356 75.053 147.017 73.7666 147.017 71.9993 146.963 70.2874 148.357 68.9448 150.07 68.9448ZM150.07 74.6239C151.518 74.6239 152.642 73.553 152.642 71.9993 152.642 70.4457 151.518 69.3739 150.07 69.3739 148.623 69.3739 147.499 70.4448 147.499 71.9993 147.499 73.6092 148.624 74.6265 150.07 74.6265Z" fill="#1E344B" transform="matrix(1 0 0 1.01078 500.062 612.027)"/><path d="M157.25 69.1083C158.59 69.1083 159.447 69.8047 159.447 70.9838 159.447 72.1083 158.643 72.8592 157.25 72.8592L156.071 72.8592 156.071 75.0556 155.59 75.0556 155.59 69.1083ZM157.25 72.3229C158.321 72.3229 158.911 71.7874 158.911 70.9301 158.911 70.0192 158.268 69.5374 157.25 69.5374L156.071 69.5374 156.071 72.3229Z" fill="#1E344B" transform="matrix(1 0 0 1.01078 500.062 612.027)"/><path d="M165.715 74.5201 165.715 75.0002 161.804 75.0002 161.804 69.1083 165.662 69.1083 165.662 69.5902 162.289 69.5902 162.289 71.6801 165.02 71.6801 165.02 72.1127 162.284 72.1127 162.284 74.5772 165.712 74.5772Z" fill="#1E344B" transform="matrix(1 0 0 1.01078 500.062 612.027)"/><path d="M63.8107 72.3229C63.8112 73.329 62.9959 74.145 61.9898 74.1455 60.9836 74.146 60.1676 73.3307 60.1671 72.3246 60.1667 71.3185 60.9819 70.5024 61.9881 70.5019 61.9883 70.5019 61.9887 70.5019 61.9889 70.5019 62.9905 70.5122 63.8 71.3213 63.8107 72.3229Z" fill="#1E344B" transform="matrix(1 0 0 1.01078 500.062 612.027)"/><path d="M133.783 72.3229C133.784 73.329 132.968 74.145 131.962 74.1455 130.956 74.146 130.141 73.3307 130.14 72.3246 130.139 71.3185 130.955 70.5024 131.961 70.5019 131.961 70.5019 131.961 70.5019 131.961 70.5019 132.959 70.4933 133.775 71.2949 133.783 72.2925 133.783 72.3026 133.783 72.3127 133.783 72.3229Z" fill="#1E344B" transform="matrix(1 0 0 1.01078 500.062 612.027)"/></g></svg>